<svg xmlns="http://www.w3.org/2000/svg" xmlns:xlink="http://www.w3.org/1999/xlink" width="52" height="52" viewBox="0 0 52 52">
    <defs>
        <path id="a" d="M0 .696h51.304V52H0z"/>
    </defs>
    <g fill="none" fill-rule="evenodd">
        <g>
            <mask id="b" fill="#fff">
                <use xlink:href="#a"/>
            </mask>
            <path fill="#E2F9F9" d="M51.304 26.348C51.304 40.516 39.82 52 25.652 52 11.485 52 0 40.516 0 26.348 0 12.181 11.485.696 25.652.696c14.168 0 25.652 11.485 25.652 25.652" mask="url(#b)"/>
        </g>
        <path fill="#4D4D4D" d="M10.457 29.502c3.274-2.798 4.782-4.83 4.782-6.585 0-1.168-.626-2.018-1.922-2.018-.853 0-1.593.515-2.162 1.183l-.755-.724c.854-.904 1.75-1.503 3.074-1.503 1.865 0 3.031 1.197 3.031 3.021 0 2.033-1.636 4.106-4.084 6.377.54-.043 1.181-.099 1.708-.099h2.89v1.1h-6.562v-.752zM23.106 26.708v-2.903c0-.464.053-1.225.079-1.715h-.053c-.236.464-.499.93-.776 1.393l-2.197 3.225h2.947zm2.421.941h-1.276v2.606h-1.145v-2.606H18.91v-.774l4.013-6.075h1.329v5.908h1.276v.941z"/>
        <path stroke="#4D4D4D" stroke-linecap="round" stroke-linejoin="round" stroke-width=".95" d="M26 16.073v2.836M26 32.145v2.837M35.927 26h-2.836M33.09 18.91L31.2 20.8M33.09 33.09L31.2 31.2M13.236 15.449c3.127-3.739 7.88-6.125 13.205-6.125 9.416 0 17.05 7.466 17.05 16.676 0 9.21-7.634 16.676-17.05 16.676-5.276 0-9.991-2.343-13.12-6.023"/>
        <path stroke="#4D4D4D" stroke-linecap="round" stroke-linejoin="round" stroke-width=".95" d="M17.964 18.349c2.051-2.543 5.17-4.167 8.664-4.167 6.18 0 11.19 5.08 11.19 11.346 0 6.265-5.01 11.345-11.19 11.345-3.461 0-6.556-1.594-8.609-4.098"/>
    </g>
</svg>
