<svg xmlns="http://www.w3.org/2000/svg" xmlns:xlink="http://www.w3.org/1999/xlink" width="52" height="52" viewBox="0 0 52 52">
    <defs>
        <path id="a" d="M0 .332h51.304v51.304H0z"/>
    </defs>
    <g fill="none" fill-rule="evenodd">
        <g>
            <mask id="b" fill="#fff">
                <use xlink:href="#a"/>
            </mask>
            <path fill="#E2F9F9" d="M51.304 25.984c0 14.167-11.484 25.652-25.652 25.652C11.485 51.636 0 40.15 0 25.984 0 11.817 11.485.33 25.652.33c14.168 0 25.652 11.486 25.652 25.653" mask="url(#b)"/>
        </g>
        <path stroke="#4D4D4D" stroke-width=".95" d="M26.634 10.786l2.268 4.437a.71.71 0 0 0 .524.377l4.954.77a.703.703 0 0 1 .391 1.196l-3.551 3.51a.7.7 0 0 0-.201.612l.794 4.911a.71.71 0 0 1-1.025.74l-4.464-2.267a.714.714 0 0 0-.648 0l-4.463 2.267c-.518.263-1.119-.169-1.026-.74l.793-4.91a.7.7 0 0 0-.2-.612l-3.552-3.51a.704.704 0 0 1 .392-1.197l4.954-.77a.712.712 0 0 0 .524-.377l2.268-4.437a.714.714 0 0 1 1.268 0zM20.149 34.056l4.893.89c1.077.197 2.124-.444 2.338-1.43.213-.985-.486-1.944-1.563-2.14l-4.27-.795a19.253 19.253 0 0 0-10.202.864"/>
        <path stroke="#4D4D4D" stroke-width=".95" d="M11.345 37.082l10.414 3.09a11.7 11.7 0 0 0 8.636-.79l8.147-4.156a2.124 2.124 0 0 0 1.155-2.116c-.147-1.382-1.57-2.258-2.89-1.777l-4.42 1.61a21.316 21.316 0 0 1-5.093 1.173"/>
    </g>
</svg>
