<svg xmlns="http://www.w3.org/2000/svg" width="63" height="61" viewBox="0 0 63 61">
    <path fill="#4BB5B1" fill-rule="evenodd" d="M22.251 22.12c-1.684 0-2.425-2.12-1.108-3.17 3.746-2.984 7.235-6.222 10.155-9.53h.066a88.095 88.095 0 0 0 9.794 9.562c1.275 1.06.505 3.137-1.153 3.137H22.251zm27.132 6.661v-.659c0-1.368 1.477-2.226 2.661-1.54a73.489 73.489 0 0 0 4.067 2.188c.835.415 1.841.09 2.323-.708 1.095-1.81 2.606-3.906 3.986-5.592.757-.922.39-2.32-.718-2.76-10.41-4.124-19.446-11.264-24.629-18.452A1.771 1.771 0 0 0 35.631.51H13.997c-.984 0-1.782.798-1.782 1.782v5.346c0 .984.798 1.782 1.782 1.782 1.719 0 2.45 2.202 1.065 3.22-4.297 3.153-9.033 5.91-13.655 7.877a1.768 1.768 0 0 0-.65 2.78 42.77 42.77 0 0 1 3.386 4.617c.49.777 1.482 1.077 2.3.66a75.891 75.891 0 0 0 4.012-2.214c1.19-.7 2.69.146 2.69 1.527v.894c0 .984.798 1.782 1.783 1.782h9.4c.985 0 1.783.798 1.783 1.783v2.62a1.78 1.78 0 0 1-1.783 1.78H11.537c-.984 0-1.782.798-1.782 1.783v4.747c0 .984.798 1.781 1.782 1.781h12.791c.985 0 1.783.798 1.783 1.783v2.82c0 .982-.798 1.78-1.783 1.78H5.021c-.983 0-1.781.798-1.781 1.783v5.013c0 .984.798 1.781 1.781 1.781h53.35c.984 0 1.782-.797 1.782-1.78v-5.014c0-.985-.798-1.783-1.782-1.783h-20.24a1.782 1.782 0 0 1-1.781-1.78v-2.82c0-.985.798-1.783 1.781-1.783h12.993c.983 0 1.781-.797 1.781-1.78v-4.748c0-.985-.798-1.783-1.781-1.783H38.13a1.781 1.781 0 0 1-1.781-1.78v-2.62c0-.985.798-1.783 1.781-1.783h9.47c.984 0 1.782-.798 1.782-1.782z"/>
</svg>
