<svg xmlns="http://www.w3.org/2000/svg" width="16" height="51" viewBox="0 0 16 51">
    <g fill="#4BB5B1" fill-rule="evenodd">
        <path d="M8.198 32.478a4.729 4.729 0 0 0 4.69-4.121l2.164-16.671c.02-.145.031-.291.036-.438l.214-5.917a4.728 4.728 0 0 0-4.726-4.9H5.821a4.73 4.73 0 0 0-4.727 4.9l.214 5.917c.006.147.018.293.036.438L3.51 28.357a4.728 4.728 0 0 0 4.69 4.121M8.165 36.335c-4.521 0-7.846 3.19-7.846 7.314 0 4.255 3.325 7.313 7.846 7.313s7.846-3.058 7.846-7.313c0-4.123-3.325-7.314-7.846-7.314"/>
    </g>
</svg>
