<svg xmlns="http://www.w3.org/2000/svg" xmlns:xlink="http://www.w3.org/1999/xlink" width="64" height="65" viewBox="0 0 64 65">
    <defs>
        <path id="a" d="M.864.874h32.38v63.008H.865z"/>
    </defs>
    <g fill="none" fill-rule="evenodd">
        <g>
            <mask id="b" fill="#fff">
                <use xlink:href="#a"/>
            </mask>
            <path fill="#4BB5B1" d="M19.05 21.019a2.023 2.023 0 0 1-1.896 1.308h-7.38l2.886-.802a2.032 2.032 0 0 0 1.402-2.536 43.032 43.032 0 0 0-.265-.865 2.03 2.03 0 0 1 1.93-2.645h2.428c1.38 0 2.367 1.352 1.928 2.66a79.15 79.15 0 0 1-1.032 2.88m10.836 13.209h-5.252a2.027 2.027 0 1 1 0-4.055h6.582c1.12 0 2.028-.908 2.028-2.028v-3.79c0-1.12-.908-2.028-2.028-2.028h-.951c-1.47 0-2.453-1.505-1.856-2.846.105-.235.21-.473.319-.714a2.032 2.032 0 0 0-1.483-2.825l-2.511-.463h5.418a2.028 2.028 0 0 0 2.027-2.028V9.728c0-1.12-.908-2.028-2.027-2.028h-5.428a2.017 2.017 0 0 1-1.91-1.351 134.026 134.026 0 0 0-1.56-4.186A2.022 2.022 0 0 0 18.894.93l-5.831 1.398a2.021 2.021 0 0 0-1.461 2.576l.05.158A2.03 2.03 0 0 1 9.716 7.7h-5.76c-1.12 0-2.028.908-2.028 2.028v3.723c0 1.12.908 2.028 2.028 2.028h6.217l-3.1.755a2.026 2.026 0 0 0-1.465 2.537c.094.326.188.655.279.982a2.03 2.03 0 0 1-1.954 2.574H2.892a2.029 2.029 0 0 0-2.028 2.028v3.79c0 1.12.909 2.028 2.028 2.028h8.31a2.028 2.028 0 0 1 0 4.055H3.36a2.03 2.03 0 0 0-2.03 2.028v3.99c0 1.12.91 2.028 2.03 2.028h7.844c1.12 0 2.028.908 2.028 2.028v17.552c0 1.12.908 2.028 2.028 2.028h5.32c1.12 0 2.028-.907 2.028-2.028V44.302c0-1.12.908-2.028 2.028-2.028h5.252a2.028 2.028 0 0 0 2.027-2.028v-3.99a2.028 2.028 0 0 0-2.027-2.028" mask="url(#b)"/>
        </g>
        <path fill="#4BB5B1" d="M2.626 57.174l.07.048c1.812 1.242 4.305.64 5.336-1.3a94.673 94.673 0 0 0 3.04-6.29c.887-2.023-.209-4.366-2.326-5.001l-.122-.037a3.684 3.684 0 0 0-4.47 2.14 54.788 54.788 0 0 1-2.675 5.626 3.676 3.676 0 0 0 1.147 4.814M44.92 13.613c5.214-1.042 10.602-2.447 15.325-4.179.902-.33 1.159-1.479.47-2.148l-5.223-5.082a1.287 1.287 0 0 0-1.44-.245C49.362 4.1 42.5 6.1 35.94 7.43a1.286 1.286 0 0 0-1.034 1.261v23.211c0 4.323-.085 9.29-.772 14.106-.17 1.19-1.757 1.502-2.38.475a85.926 85.926 0 0 0-1.818-2.868 1.296 1.296 0 0 0-1.723-.414l-3.991 2.274a1.288 1.288 0 0 0-.476 1.775c1.335 2.26 2.779 4.93 3.774 7.04a1.295 1.295 0 0 0 1.865.551c1.074-.679 2.412.45 1.88 1.604-.18.391-.37.774-.573 1.151-.321.6-.163 1.342.416 1.7 1.618.998 3.765 2.62 5.258 3.954a1.298 1.298 0 0 0 2.003-.335c4.529-8.103 5.437-20.42 5.509-29.666a1.288 1.288 0 0 1 1.292-1.28h1.94c.714 0 1.294.58 1.294 1.293v29.593c0 .714.579 1.294 1.293 1.294h6.788c.714 0 1.293-.58 1.293-1.294V33.261c0-.714.58-1.294 1.294-1.294h2.997c.715 0 1.294-.579 1.294-1.293v-6.322c0-.715-.58-1.294-1.294-1.294H45.177a1.294 1.294 0 0 1-1.294-1.294v-6.887c0-.617.434-1.143 1.038-1.264"/>
    </g>
</svg>
