<svg xmlns="http://www.w3.org/2000/svg" width="61" height="59" viewBox="0 0 61 59">
    <path fill="#4BB5B1" fill-rule="evenodd" d="M3.72 9.944h16.79a3.239 3.239 0 0 1 3.24 3.24v41.858a3.239 3.239 0 0 0 3.24 3.239h3.959c1.79 0 3.24-1.45 3.24-3.24v-20.82c0-2.551 2.818-4.106 4.973-2.74 3.42 2.17 6.719 4.419 9.242 6.432 1.38 1.104 3.395.869 4.51-.503l3.033-3.727a3.244 3.244 0 0 0-.66-4.703c-4.76-3.353-11.66-7.18-17.164-10.028a3.232 3.232 0 0 0-3.934.766v-6.534a3.24 3.24 0 0 1 3.24-3.24h19.717a3.24 3.24 0 0 0 3.239-3.24V3.41a3.24 3.24 0 0 0-3.24-3.24H3.72A3.24 3.24 0 0 0 .48 3.41v3.294a3.24 3.24 0 0 0 3.24 3.24"/>
</svg>
