<svg xmlns="http://www.w3.org/2000/svg" width="60" height="62" viewBox="0 0 60 62">
    <g fill="#4BB5B1" fill-rule="evenodd">
        <path d="M23.4 26.374h-6.715a1.164 1.164 0 0 1 0-2.327H23.4a1.163 1.163 0 1 1 0 2.327m0 9.11h-6.715a1.163 1.163 0 0 1 0-2.327H23.4c.643 0 1.163.52 1.163 1.162v.001c0 .642-.52 1.163-1.163 1.163m12.366-2.327h7.381c.643 0 1.164.521 1.164 1.163v.001c0 .642-.52 1.163-1.164 1.163h-7.38a1.163 1.163 0 0 1 0-2.327m0-9.109h7.38a1.164 1.164 0 1 1 0 2.327h-7.38a1.164 1.164 0 0 1 0-2.327m0 18.75h14.395a4.123 4.123 0 0 0 4.122-4.122v-17.82a4.123 4.123 0 0 0-4.122-4.122h-39.96a4.122 4.122 0 0 0-4.122 4.122v17.82a4.122 4.122 0 0 0 4.122 4.122H23.4c.643 0 1.163.52 1.163 1.163v.2c0 .643-.52 1.163-1.163 1.163H4.152a4.123 4.123 0 0 0 0 8.245H23.4c.643 0 1.163.52 1.163 1.163v2.63a4.12 4.12 0 0 0 4.12 4.118h1.801a4.12 4.12 0 0 0 4.12-4.119v-2.629c0-.643.52-1.163 1.162-1.163h20.047a4.123 4.123 0 0 0 0-8.245H35.766c-.642 0-1.163-.52-1.163-1.163v-.2c0-.643.521-1.163 1.163-1.163M18.082 8.955h-4.986a1.23 1.23 0 1 1 0-2.46h4.986a1.23 1.23 0 1 1 0 2.46M22.815.91H8.894a5.54 5.54 0 0 0-5.54 5.538V9a5.54 5.54 0 0 0 5.54 5.539h13.921A5.538 5.538 0 0 0 28.353 9V6.449A5.538 5.538 0 0 0 22.815.91M46.472 8.955h-5.186a1.23 1.23 0 0 1 0-2.46h5.186a1.23 1.23 0 1 1 0 2.46M51.207.91H37.084a5.54 5.54 0 0 0-5.54 5.538V9a5.54 5.54 0 0 0 5.54 5.539h14.123A5.538 5.538 0 0 0 56.745 9V6.449A5.538 5.538 0 0 0 51.207.91"/>
    </g>
</svg>
