<svg xmlns="http://www.w3.org/2000/svg" width="61" height="62" viewBox="0 0 61 62">
    <g fill="#4BB5B1" fill-rule="evenodd">
        <path d="M22.46 36.17l-.084.022c-2.245.585-4.439-1.11-4.439-3.428V18.75a3.543 3.543 0 0 1 3.543-3.543h.826a3.543 3.543 0 0 0 3.543-3.543V9.64a3.543 3.543 0 0 0-3.543-3.543H3.928A3.543 3.543 0 0 0 .385 9.64v2.023a3.543 3.543 0 0 0 3.543 3.543h.891a3.543 3.543 0 0 1 3.543 3.543v18.087a3.543 3.543 0 0 1-2.765 3.456c-.914.206-1.799.405-2.649.592A3.546 3.546 0 0 0 .24 45.12l.662 2.959a3.54 3.54 0 0 0 4.395 2.644c5.958-1.646 12.8-3.567 19.378-5.523a3.54 3.54 0 0 0 2.489-3.877l-.304-2.208a3.54 3.54 0 0 0-4.4-2.946"/>
        <path d="M41.85.38h-3.16a3.338 3.338 0 0 0-3.334 3.335 795.135 795.135 0 0 1-.024 5.864 3.33 3.33 0 0 1-3.336 3.301h-1.55a3.334 3.334 0 0 0-3.333 3.334v2.573a3.334 3.334 0 0 0 3.334 3.335h.978c1.959 0 3.509 1.687 3.326 3.637-1.072 11.493-4.11 20.31-12.73 26.704-1.608 1.192-1.852 3.487-.5 4.962a34.544 34.544 0 0 1 2.099 2.521c1.092 1.453 3.149 1.823 4.61.743 11.248-8.31 14.993-20.288 16.28-35.535a3.324 3.324 0 0 1 3.318-3.032 3.341 3.341 0 0 1 3.333 3.431c-.456 16.808-1.062 23.94-2.374 25.624-.73.931-1.395 1.197-2.592 1.197-.604 0-1.426 0-2.396-.017-2.286-.039-3.897 2.186-3.216 4.37.24.767.442 1.54.598 2.282a3.329 3.329 0 0 0 3.262 2.638c2.522.001 4.846-.092 6.539-.43 2.66-.466 4.454-1.33 6.316-4.056 2.327-3.258 2.926-13.23 3.525-40.026.012-.225.022-.515.03-.838a3.334 3.334 0 0 0-3.333-3.417h-9.067a3.33 3.33 0 0 1-3.334-3.377c.028-1.882.052-3.803.066-5.755A3.34 3.34 0 0 0 41.85.38"/>
    </g>
</svg>
