<svg xmlns="http://www.w3.org/2000/svg" width="63" height="64" viewBox="0 0 63 64">
    <g fill="#4BB5B1" fill-rule="evenodd">
        <path d="M51.862 54.704h-5.718c-2.26 0-2.659-.267-2.659-2.792v-3.059a2.66 2.66 0 0 1 2.66-2.66h10.504a2.658 2.658 0 0 0 2.66-2.659V40.41a2.66 2.66 0 0 0-2.66-2.66H46.144a2.658 2.658 0 0 1-2.659-2.659v-.598c0-1.47-1.19-2.66-2.66-2.66H36.57a2.659 2.659 0 0 0-2.659 2.66v17.485c0 8.378 2.06 11.104 10.704 11.104h8.178c6.061 0 8.656-2.166 9.837-9.14a2.668 2.668 0 0 0-1.83-2.998c-.962-.3-1.97-.67-2.922-1.08-1.572-.679-3.375.32-3.648 2.008-.37 2.3-1.002 2.833-2.368 2.833M45.48 30.17h8.909c1.46 0 3.07-.043 4.469-.175a2.656 2.656 0 0 0 2.398-2.936c-.104-.935-.201-1.933-.284-2.905a2.65 2.65 0 0 0-2.891-2.419c-1.33.126-2.768.19-3.891.19h-8.377c-1.995 0-2.327-.93-2.327-3.39a2.658 2.658 0 0 1 2.659-2.66h10.172a2.66 2.66 0 0 0 2.659-2.66v-2.859a2.66 2.66 0 0 0-2.66-2.66H46.146a2.659 2.659 0 0 1-2.66-2.659V3.241a2.66 2.66 0 0 0-2.66-2.659h-4.254a2.659 2.659 0 0 0-2.66 2.66v15.093c0 8.51 2.393 11.834 11.569 11.834M13.795 40.597c.966.997 1.895 1.989 2.61 2.829a1.045 1.045 0 0 0 1.5.1l2.707-2.452v1.16c0 .39-.22.75-.565.93-2.431 1.267-4.744 2.485-6.806 3.496-.727.357-1.562-.221-1.494-1.03.126-1.491.206-2.95.25-4.337.028-.928 1.152-1.363 1.798-.696zm-.713-8.166h6.484c.579 0 1.046.468 1.046 1.046v1.972c0 .915-1.093 1.39-1.76.763a323.72 323.72 0 0 0-2.616-2.43 1.04 1.04 0 0 0-1.38-.023l-1.096.93c-.68.578-1.724.095-1.724-.797v-.415c0-.578.469-1.046 1.046-1.046zm-9.89 6.183c0 5.244-.208 11.74-2.662 16.854-.536 1.117-.214 2.459.729 3.263.826.703 1.73 1.545 2.563 2.378 1.356 1.355 3.648.949 4.462-.786.776-1.655 1.402-3.445 1.907-5.297.276-1.011 1.689-1.048 2.004-.05.216.684 1.036.96 1.613.538 1.68-1.233 3.389-2.536 5.125-3.857a1.046 1.046 0 0 1 1.679.834v2.479c0 .798-.265 1.064-1.13 1.064-.516 0-1.927 0-3.391-.047a1.043 1.043 0 0 0-.981 1.488c.758 1.588 1.487 3.464 1.875 5.023.116.465.546.784 1.026.78 3.575-.021 6.366-.217 8.586-1.327 2.392-1.263 3.125-3.191 3.125-6.915V25.498c0-.578-.47-1.046-1.046-1.046H4.239c-.578 0-1.047.468-1.047 1.046v13.116zM19.324 10.01l.09.191a1.973 1.973 0 0 1-1.618 2.795l-.096.01c-1.732.151-2.805-1.812-1.749-3.175a78.296 78.296 0 0 0 3.21-4.44c.745-1.117.174-2.639-1.12-3L12.44.83a1.967 1.967 0 0 0-2.29 1.013c-2.347 4.703-5.68 8.976-6.825 10.243-.812.893-1.574 1.612-2.333 2.113-.783.517-1.126 1.48-.79 2.356a103.94 103.94 0 0 1 1.762 4.986 1.967 1.967 0 0 0 2.377 1.302c2.361-.606 6.75-1.192 18.015-2.357a1.993 1.993 0 0 1 2.072 1.285c.08.214.156.424.23.631a1.969 1.969 0 0 0 2.578 1.168l4.667-1.837a1.973 1.973 0 0 0 1.088-2.625c-1.552-3.572-3.907-8.3-5.889-12.26a1.967 1.967 0 0 0-2.405-.982l-4.225 1.456a1.969 1.969 0 0 0-1.149 2.688"/>
    </g>
</svg>
