<svg xmlns="http://www.w3.org/2000/svg" width="63" height="60" viewBox="0 0 63 60">
    <path fill="#4BB5B1" fill-rule="evenodd" d="M37.566 28.172h16.661a3.106 3.106 0 0 0 3.106-3.105v-3.563a3.107 3.107 0 0 0-3.106-3.106h-16.66a3.105 3.105 0 0 1-3.106-3.105V3.153A3.105 3.105 0 0 0 31.356.046h-4.228a3.106 3.106 0 0 0-3.106 3.105v43.124a3.105 3.105 0 0 1-3.104 3.105H3.79a3.107 3.107 0 0 0-3.106 3.106v3.563a3.106 3.106 0 0 0 3.106 3.105h55.16a3.105 3.105 0 0 0 3.104-3.105v-3.563a3.106 3.106 0 0 0-3.105-3.106H37.566a3.105 3.105 0 0 1-3.105-3.105V31.277a3.105 3.105 0 0 1 3.105-3.105"/>
</svg>
