<svg xmlns="http://www.w3.org/2000/svg" width="62" height="64" viewBox="0 0 62 64">
    <g fill="#4BB5B1" fill-rule="evenodd">
        <path d="M2.802 61.567c.489.156.987.321 1.473.49 1.599.557 3.314-.415 3.696-2.066.763-3.3 1.34-7.319 1.666-11.355a2.849 2.849 0 0 0-2.4-3.044l-1.582-.247a2.845 2.845 0 0 0-3.273 2.614c-.264 3.611-.714 7.218-1.464 10.18a2.846 2.846 0 0 0 1.884 3.428M10.367 48.615c.273 2.707.5 5.65.597 8.245.065 1.73 1.665 2.99 3.367 2.67l1.29-.244a2.84 2.84 0 0 0 2.311-2.97 151.415 151.415 0 0 0-.8-8.532 2.847 2.847 0 0 0-3.327-2.461l-1.115.2a2.844 2.844 0 0 0-2.323 3.092"/>
        <path d="M37.14 24.223v-.274c0-.494.399-.894.894-.894h12.84c.494 0 .894.4.894.894v.274c0 .494-.4.894-.894.894h-12.84a.893.893 0 0 1-.894-.894zm.894-9.745h12.84c.494 0 .894.4.894.894v.208c0 .493-.4.893-.894.893h-12.84a.893.893 0 0 1-.894-.893v-.208c0-.494.399-.894.894-.894zm-24.43 18.683c.493-.569.986-1.16 1.479-1.76.469-.57 1.398-.36 1.56.36l.006.027a.898.898 0 0 1-.761 1.094l-2.284.28zm41.865 11.367c1.653-1.219 3.409-2.623 5.25-4.034 1.332-1.019 1.382-3.009.11-4.103l-2.512-2.16c-1.12-.963-2.797-.812-3.758.31a70.622 70.622 0 0 1-2.44 2.683.89.89 0 0 1-1.473-.284 32.799 32.799 0 0 1-.9-2.517.924.924 0 0 1-.041-.272v-1.027c0-.493.4-.893.894-.893h9.649c.495 0 .894-.4.894-.894V8.258a.893.893 0 0 0-.894-.894h-11.31a.89.89 0 0 1-.774-1.334c.53-.916 1.06-1.86 1.59-2.81a.894.894 0 0 0-.633-1.318L40.116.392a.894.894 0 0 0-1.021.698c-.39 1.76-.993 3.756-1.62 5.662a.893.893 0 0 1-.85.612h-7.502c-.493 0-.893.4-.893.894v23.08c0 .493.4.893.893.893h10.514c.494 0 .894.4.894.893v2.716a.893.893 0 0 1-1.18.846l-3.921-1.323a.887.887 0 0 0-.445-.033l-1.157.211a.942.942 0 0 1-.16.014h-5.491a2.274 2.274 0 0 0-2.274 2.274v1.981c-.458-3.154-1.561-7.693-2.75-11.612a1.943 1.943 0 0 0-2.392-1.303c-.913.26-1.565-.668-1.066-1.35 2.106-2.884 4.093-5.884 5.823-8.886a2.822 2.822 0 0 0-.933-3.8l-3.156-1.992c-1.423-.897-3.294-.346-4.033 1.165a70.192 70.192 0 0 1-3.085 5.642.893.893 0 0 1-.707.425l-.825.054c-.727.047-1.207-.747-.82-1.363 1.87-2.967 3.698-6.233 5.238-9.465a3.87 3.87 0 0 0-2.047-5.25l-1.18-.477C11.938.775 9.65 1.83 8.907 3.894 6.93 9.382 4.324 14.362 3.296 15.875c-.701 1.071-1.341 1.916-2.01 2.513-.934.831-1.193 2.187-.753 3.357.369.983.742 2.028 1.069 2.99a3.108 3.108 0 0 0 3.54 2.052c.425-.083.91-.167 1.47-.252.8-.123 1.339.81.839 1.447a41.456 41.456 0 0 1-1.893 2.254c-1.315 1.476-2.37 2.57-3.417 3.322C1 34.375.489 35.811.983 37.121a93.981 93.981 0 0 1 1.136 3.193 3.074 3.074 0 0 0 3.648 2.012c2.017-.498 5.377-1.092 11.672-1.99a.905.905 0 0 1 1.02.755c.026.157.048.312.07.465a.887.887 0 0 0 1.155.717l5.053-1.623a.893.893 0 0 1 1.166.851c0 .975.79 1.766 1.766 1.766h1.23c.667 0 1.09.701.8 1.3-.846 1.74-1.854 3.377-3.025 4.825-.46.566-1.376.372-1.558-.334a86.576 86.576 0 0 0-1.32-4.495 1.979 1.979 0 0 0-2.493-1.289l-2.425.782c-1.018.33-1.612 1.438-1.313 2.465.425 1.461.83 3.031 1.137 4.447a2.014 2.014 0 0 0 2.64 1.484l3.764-1.339c-.19.203-.384.398-.583.584-1.195 1.12-1.357 2.947-.296 4.194a40.417 40.417 0 0 1 1.54 1.924 2.96 2.96 0 0 0 4.335.47c3.83-3.302 6.72-7.81 8.7-13.333.339-.944 1.729-.709 1.729.293v8.794c0 .731-.266.931-1.064.931-.626.052-2.395.063-4.124.001a.88.88 0 0 0-.848 1.21c.374.95.726 2.014 1.03 3.087.772 2.713 3.357 4.518 6.162 4.217 1.82-.196 3.397-.58 4.762-1.335 2.592-1.463 3.257-3.856 3.257-7.912v-1.86c1.276 2.086 2.687 3.994 4.258 5.67 1.673 1.784 4.573 1.633 6.079-.296.257-.328.52-.655.786-.975a4.02 4.02 0 0 0-.53-5.66c-1.863-1.553-3.53-3.4-5.012-5.46a.814.814 0 0 1 .182-1.129z"/>
    </g>
</svg>
