<svg xmlns="http://www.w3.org/2000/svg" width="62" height="61" viewBox="0 0 62 61">
    <g fill="#4BB5B1" fill-rule="evenodd">
        <path d="M30.238 47.914c.998 2.926 2.062 6.782 2.46 9.31l4.853-1.33c-.464-2.46-1.594-6.185-2.659-9.11l-4.654 1.13zM48.423 33.153H46.76a1.23 1.23 0 0 1-1.23-1.23v-.532c0-.679.55-1.23 1.23-1.23h1.662c.68 0 1.23.551 1.23 1.23v.532c0 .68-.55 1.23-1.23 1.23m0 8.91H46.76a1.23 1.23 0 0 1-1.23-1.23v-.2c0-.679.55-1.23 1.23-1.23h1.662c.68 0 1.23.551 1.23 1.23v.2c0 .68-.55 1.23-1.23 1.23m0 8.777H46.76a1.23 1.23 0 0 1-1.23-1.23v-.067c0-.68.55-1.23 1.23-1.23h1.662c.68 0 1.23.55 1.23 1.23v.067c0 .68-.55 1.23-1.23 1.23m9.108-2.527h1.663a1.23 1.23 0 0 0 1.23-1.23v-3.79c0-.68-.55-1.23-1.23-1.23H57.53a1.23 1.23 0 0 1-1.23-1.23v-.2c0-.679.552-1.23 1.23-1.23h1.663a1.23 1.23 0 0 0 1.23-1.23v-3.79a1.23 1.23 0 0 0-1.23-1.23H57.53a1.23 1.23 0 0 1-1.23-1.23v-.532c0-.679.552-1.23 1.23-1.23h2.662a1.23 1.23 0 0 0 1.229-1.23v-4.455a1.23 1.23 0 0 0-1.23-1.23h-2.12a1.238 1.238 0 0 1-1.173-.863c-.505-1.537-1.204-3.244-1.882-4.79a1.233 1.233 0 0 0-1.478-.69l-3.526 1.042a1.224 1.224 0 0 0-.801 1.614c.254.66.51 1.354.756 2.052a1.23 1.23 0 0 1-1.163 1.635h-.326c-.84 0-1.443-.825-1.167-1.619a68.62 68.62 0 0 0 .635-1.924 1.23 1.23 0 0 0-.887-1.554l-4.627-1.135a1.226 1.226 0 0 0-1.472.862c-1.287 4.475-3.252 9.022-5.662 12.317a1.211 1.211 0 0 0 .328 1.726c.724.47 1.526 1.034 2.293 1.597.314.231.496.598.496.988V59.25c0 .68.55 1.23 1.23 1.23h4.655c.68 0 1.23-.55 1.23-1.23 0-.68.55-1.23 1.23-1.23h13.764a1.23 1.23 0 0 0 1.229-1.23v-4.72c0-.68-.551-1.23-1.23-1.23h-2.993a1.23 1.23 0 0 1-1.23-1.23v-.067c0-.68.552-1.23 1.23-1.23M9.295 37.608a1.462 1.462 0 0 1-1.463-1.462v-25.6a1.462 1.462 0 0 1 2.925 0v25.6c0 .808-.654 1.462-1.462 1.462m4.289-36.036H5.073A4.488 4.488 0 0 0 .585 6.06v42.852c0 .807.655 1.462 1.463 1.462H6.37c.808 0 1.462-.655 1.462-1.462V46.65c0-.807.655-1.461 1.463-1.461h7.314c.808 0 1.462-.655 1.462-1.463V6.06a4.487 4.487 0 0 0-4.487-4.488"/>
        <path d="M50.226 9.883H48.68a1.09 1.09 0 0 1-1.09-1.09v-.88c0-.601.489-1.09 1.09-1.09h1.545c.602 0 1.09.489 1.09 1.09v.88a1.09 1.09 0 0 1-1.09 1.09m-9.707 0h-1.48a1.089 1.089 0 0 1-1.087-1.09v-.88c0-.601.487-1.09 1.088-1.09h1.479a1.09 1.09 0 0 1 1.089 1.09v.88c0 .602-.487 1.09-1.09 1.09m-9.573 0h-1.412a1.09 1.09 0 0 1-1.09-1.09v-.88c0-.601.488-1.09 1.09-1.09h1.412a1.09 1.09 0 0 1 1.089 1.09v.88a1.09 1.09 0 0 1-1.09 1.09m-1.038 26.86c.096.385.208.769.32 1.153a1.09 1.09 0 0 1-.924 1.386l-1.656.188c.797-.864 1.529-1.795 2.26-2.726M56.123.174H24.036a3.638 3.638 0 0 0-3.637 3.638v9.9a2.886 2.886 0 0 0 2.886 2.886h1.153c.746 0 1.268.733 1.034 1.44-1.387 4.188-3.494 8.258-4.21 9.33-.66.99-1.251 1.713-1.895 2.144-.446.299-.592.895-.392 1.393a41.086 41.086 0 0 1 1.21 3.52c.165.56.732.886 1.302.754.166-.04.347-.077.549-.114.972-.18 1.666.938 1.07 1.727-.458.607-.838 1.074-1.111 1.348-1.148 1.297-2.033 2.22-2.937 2.712-.48.26-.725.802-.527 1.31a58.071 58.071 0 0 1 1.153 3.326c.179.574.794.883 1.368.708 1.343-.411 3.793-.903 9.658-1.725a1.092 1.092 0 0 1 1.23.91l.004.023c.097.632.72 1.04 1.34.885l3.164-.791c.557-.14.914-.68.81-1.245-.406-2.227-1.238-5.294-2.116-7.872a1.08 1.08 0 0 0-1.25-.703l-.92.194c-.98.208-1.692-.903-1.1-1.711a73.528 73.528 0 0 0 4.46-6.8 1.089 1.089 0 0 0-.458-1.507l-3.807-1.948a1.085 1.085 0 0 0-1.487.533 53.254 53.254 0 0 1-2.087 4.102 1.096 1.096 0 0 1-.955.557h-.824a55.673 55.673 0 0 0 5.414-9.6 1.087 1.087 0 0 0-.617-1.443l-3.8-1.457h29.163a2.886 2.886 0 0 0 2.886-2.885V3.812A3.637 3.637 0 0 0 56.123.175M16.343 58.353c1.396.333 3.923.798 5.12 1.33.996-2.66 2.393-7.114 3.192-10.971l-5.121-1.13c-.731 3.657-1.995 7.979-3.191 10.77M24.92 48.646c.465 3.19.798 7.38.73 10.106l5.453-.797c-.066-2.727-.465-6.783-1.064-10.04l-5.12.73z"/>
    </g>
</svg>
