<?xml version="1.0" encoding="UTF-8"?>
<svg width="73px" height="56px" viewBox="0 0 73 56" version="1.1" xmlns="http://www.w3.org/2000/svg" xmlns:xlink="http://www.w3.org/1999/xlink">
    <!-- Generator: Sketch 61.2 (89653) - https://sketch.com -->
    <title>Group 9</title>
    <desc>Created with Sketch.</desc>
    <g id="Page-1" stroke="none" stroke-width="1" fill="none" fill-rule="evenodd">
        <g id="MB" transform="translate(-236.000000, -189.000000)">
            <g id="KVm" transform="translate(-17.000000, -20.000000)">
                <g id="知識學習投資下單" transform="translate(68.000000, 194.000000)">
                    <g id="bubble" transform="translate(186.505000, 16.245000)">
                        <g id="Group-9">
                            <path d="M55.3616775,53.3533466 L25.7769675,53.3533466 C17.7889162,53.3533466 11.314215,46.8780041 11.314215,38.8905941 L11.314215,14.6250529 C11.314215,6.63764288 17.7889162,0.162300375 25.7769675,0.162300375 L55.3616775,0.162300375 C63.3490875,0.162300375 69.82443,6.63764288 69.82443,14.6250529 L69.82443,38.8905941 C69.82443,46.8780041 63.3490875,53.3533466 55.3616775,53.3533466" id="Fill-1" fill="#FFFFFF"></path>
                            <path d="M55.3616775,53.3533466 L25.7769675,53.3533466 C17.7889162,53.3533466 11.314215,46.8780041 11.314215,38.8905941 L11.314215,14.6250529 C11.314215,6.63764288 17.7889162,0.162300375 25.7769675,0.162300375 L55.3616775,0.162300375 C63.3490875,0.162300375 69.82443,6.63764288 69.82443,14.6250529 L69.82443,38.8905941 C69.82443,46.8780041 63.3490875,53.3533466 55.3616775,53.3533466 Z" id="Stroke-3" stroke="#4BB5B1" stroke-width="1.92375" stroke-linecap="round" stroke-linejoin="round"></path>
                            <g id="Group-8" transform="translate(0.000000, 29.497500)">
                                <polyline id="Fill-5" fill="#FFFFFF" points="13.7906584 14.2941037 0.244252125 14.1523875 12.6556459 0.60598125"></polyline>
                                <polyline id="Stroke-7" stroke="#4BB5B1" stroke-width="1.92375" stroke-linecap="round" stroke-linejoin="round" points="13.7906584 14.2941037 0.244252125 14.1523875 12.6556459 0.60598125"></polyline>
                            </g>
                        </g>
                    </g>
                </g>
            </g>
        </g>
    </g>
</svg>