<svg xmlns="http://www.w3.org/2000/svg" xmlns:xlink="http://www.w3.org/1999/xlink" width="106" height="28" viewBox="0 0 106 28">
    <defs>
        <path id="a" d="M0 .632h2.492v3.344H0z"/>
        <path id="c" d="M.37.656h2.77V4H.37z"/>
        <path id="e" d="M.079.603h2.707V4H.08z"/>
        <path id="g" d="M.699.603h2.708V4H.699z"/>
    </defs>
    <g fill="none" fill-rule="evenodd">
        <path fill="#CFE6E9" d="M14.605 12.572l.122-6.19c.027-1.405.147-2.68.255-3.925h-.052a100.99 100.99 0 0 1-2.034 3.891L9.343 12.57l5.262.003zm-6.371 2.166l-3.818 6.764-2.333-.002L14.388 0l2.722.001-.406 21.506h-2.411l.136-6.766-6.195-.003zM27.893.006l-6.368 21.503-2.256-.001L25.638.005z"/>
        <g transform="translate(0 23.166)">
            <mask id="b" fill="#fff">
                <use xlink:href="#a"/>
            </mask>
            <path fill="#68B7B8" d="M1.018 2.048h.3c.35 0 .64-.234.757-.552.14-.385-.034-.537-.368-.537-.152 0-.245.015-.303.03l-.386 1.06zM.445 3.624c.059.015.152.02.27.02.342 0 .716-.16.89-.64.164-.449-.07-.634-.43-.634H.9L.445 3.624zM1.178.7c.158-.039.398-.068.629-.068.33 0 .518.073.616.24.087.126.096.322.002.58-.115.318-.38.596-.696.723l-.004.01c.215.078.406.336.229.824a1.57 1.57 0 0 1-.457.66c-.255.21-.58.307-.998.307-.228 0-.396-.02-.5-.039L1.179.7z" mask="url(#b)"/>
        </g>
        <g transform="translate(2 23.166)">
            <mask id="d" fill="#fff">
                <use xlink:href="#c"/>
            </mask>
            <path fill="#68B7B8" d="M1.585.656L.876 2.604c-.268.737-.127 1.05.215 1.05.381 0 .741-.322 1.006-1.05l.71-1.948h.333l-.698 1.919C2.074 3.585 1.51 4 .954 4 .43 4 .174 3.615.545 2.595L1.25.656h.335z" mask="url(#d)"/>
        </g>
        <path fill="#68B7B8" d="M4.517 27.112l1.197-3.29h.362l.215 1.665c.05.385.073.731.072 1.068l.008-.005c.13-.439.268-.839.455-1.35l.5-1.378h.313l-1.198 3.29h-.334L5.9 25.443a8.761 8.761 0 0 1-.08-1.099l-.013.005c-.132.415-.27.811-.467 1.357l-.512 1.406h-.312zM7.019 27.112l1.197-3.29h.362l.215 1.665c.05.385.073.731.072 1.068l.008-.005c.13-.439.268-.839.455-1.35l.5-1.378h.312l-1.197 3.29h-.334l-.206-1.669a8.957 8.957 0 0 1-.08-1.099l-.013.005c-.132.415-.27.811-.467 1.357l-.512 1.406h-.312zM10.065 27.112l.508-1.396-.12-1.894h.376l.03.908c.009.25.013.45.009.68h.008c.15-.216.315-.43.504-.68l.7-.908h.377l-1.547 1.89-.51 1.4h-.335zM14.362 26.966a2.456 2.456 0 0 1-.853.18c-.388 0-.661-.126-.8-.434-.121-.273-.098-.713.089-1.225.36-.981 1.146-1.7 2.005-1.7.297 0 .498.084.584.153l-.206.346c-.108-.078-.257-.141-.515-.141-.623 0-1.211.498-1.512 1.323-.304.834-.091 1.327.506 1.327.217 0 .379-.04.473-.088l.357-.981h-.522l.125-.341h.844l-.575 1.58z"/>
        <g transform="translate(15 23.166)">
            <mask id="f" fill="#fff">
                <use xlink:href="#e"/>
            </mask>
            <path fill="#68B7B8" d="M.607 2.321C.35 3.023.419 3.654.94 3.654c.524 0 1.047-.62 1.318-1.366.239-.654.22-1.338-.331-1.338C1.38.95.87 1.599.607 2.32m2.008-.054C2.203 3.4 1.449 4 .794 4 .118 4-.113 3.326.25 2.332.63 1.287 1.384.602 2.069.602c.699 0 .9.69.546 1.666" mask="url(#f)"/>
        </g>
        <g transform="translate(17 23.166)">
            <mask id="h" fill="#fff">
                <use xlink:href="#g"/>
            </mask>
            <path fill="#68B7B8" d="M1.227 2.321c-.256.702-.188 1.333.332 1.333.525 0 1.047-.62 1.319-1.366.238-.654.22-1.338-.331-1.338-.548 0-1.057.649-1.32 1.371m2.008-.054C2.823 3.4 2.068 4 1.414 4 .738 4 .507 3.326.87 2.332 1.249 1.287 2.004.602 2.689.602c.699 0 .9.69.546 1.666" mask="url(#h)"/>
        </g>
        <path fill="#68B7B8" d="M20.507 26.775c.076.02.196.024.325.024.707 0 1.277-.507 1.6-1.395.286-.776.123-1.27-.576-1.27-.17 0-.308.02-.405.044l-.944 2.597zm.728-2.909c.215-.039.465-.069.728-.069.475 0 .762.142.89.411.13.268.124.65-.07 1.181-.195.536-.485.976-.835 1.28a1.956 1.956 0 0 1-1.304.472c-.237 0-.429-.014-.587-.039l1.178-3.236z"/>
        <path fill="#D33A2A" d="M10.956 10.862c.551-.06-.552.061 0 0"/>
        <path fill="#A8D3D6" d="M9.78 12.607l1.177-1.744-4.09.463zM6.494 17.217l1.536 2.088.52-2.568z"/>
        <path fill="#85C3C5" d="M4.905 22.692l1.89-1.49-.301-3.986z"/>
        <path fill="#54ADAA" d="M8.03 19.305l4.429-2.292-1.731-.785z"/>
        <path fill="#68B7B8" d="M21.69 14.927l5.288-2.213-4.57-.401z"/>
        <path fill="#54ADAA" d="M25.737 8.599l.838-1.804-3.463 2.836z"/>
        <path fill="#A8D3D6" d="M10.728 16.228l2.44-1.27-3.387-2.35z"/>
        <path fill="#A8D3D6" d="M10.956 10.862l2.212 4.097.235-4.38c-1.42.168-.862.103-2.447.283"/>
        <path fill="#68B7B8" d="M6.794 21.201l1.235-1.896-1.536-2.088z"/>
        <path fill="#85C3C5" d="M10.728 16.228l-.947-3.62-1.232 4.129zM26.978 12.714l.603-1.61-5.172 1.209zM23.112 9.63l-3.72.24 3.017 2.443z"/>
        <path fill="#85C3C5" d="M26.575 6.795L20.3 6.274l2.81 3.357z"/>
        <path fill="#68B7B8" d="M14.724 6.947l5.576-.673 1.584-1.6zM8.55 16.736l-.52 2.568 2.698-3.077z"/>
        <path fill="#A8D3D6" d="M21.884 4.674l-1.584 1.6 6.274.52z"/>
        <path fill="#68B7B8" d="M9.78 12.607l3.389 2.353-2.212-4.098z"/>
        <path fill="#68B7B8" d="M12.458 17.013l.71-2.054-2.44 1.269z"/>
        <path fill="#54ADAA" d="M13.168 14.959l8.522-.032.718-2.614z"/>
        <path fill="#68B7B8" d="M20.3 6.274l-.908 3.596 3.72-.24z"/>
        <path fill="#85C3C5" d="M17.664 13.67l1.728-3.8-5.989.709z"/>
        <path fill="#68B7B8" d="M19.392 9.87l-1.728 3.801-4.26-3.092-.236 4.38 9.24-2.647z"/>
        <path fill="#85C3C5" d="M17.39 4.715l-2.666 2.232 7.16-2.273z"/>
        <path fill="#A8D3D6" d="M17.39 4.715l-5.797.054 3.13 2.178zM27.58 11.104l-.603 1.61 3.112-.447z"/>
        <path fill="#54ADAA" d="M30.09 12.267l-3.112.447 1.164.497z"/>
        <path fill="#68B7B8" d="M75.81 11.307h2.925c.202 0 .374.148.403.349l.797 5.448c.11.738.283 1.107.519 1.107h.253c.224 0 .407.182.407.408v2.6a.407.407 0 0 1-.407.408h-1.714c-1.1 0-1.823-.833-2.167-2.497l-1.415-7.34a.407.407 0 0 1 .4-.483m-7.98-9.754h2.928c.26 0 .453.24.398.494l-.067.308a.407.407 0 0 0 .398.494h7.362a2.264 2.264 0 0 1 2.264 2.264.45.45 0 0 1-.01.089l-.932 4.138a.407.407 0 0 1-.397.318h-3.086a.408.408 0 0 1-.391-.524l.7-2.345a.407.407 0 0 0-.39-.524h-1.166a.407.407 0 0 0-.407.407v12.74c0 .99-.315 1.807-.943 2.45-.503.582-1.233.873-2.191.873h-1.973a.408.408 0 0 1-.407-.407v-2.414c0-.225.183-.407.407-.407h.607c.549 0 .824-.55.824-1.65V6.673a.408.408 0 0 0-.407-.407h-.372a.409.409 0 0 0-.4.32l-.26 1.188c-.344 1.445-1.184 2.168-2.52 2.168h-1.902a.408.408 0 0 1-.407-.407V7.12c0-.225.183-.408.407-.408h.607c.235 0 .424-.29.565-.871l.76-3.958a.408.408 0 0 1 .402-.33m-.455 9.849h2.93c.254 0 .446.228.4.478l-1.233 6.967c-.346 1.728-1.194 2.592-2.545 2.592h-1.524a.407.407 0 0 1-.407-.407v-2.413c0-.226.182-.408.407-.408h.228c.235 0 .43-.381.587-1.141 0-.01.003-.018.004-.027l.75-5.292c.028-.2.2-.35.403-.35m-4.741-9.848h3.09c.279 0 .476.273.388.536L64.57 6.697a.413.413 0 0 0-.022.13v15.5a.407.407 0 0 1-.407.408h-2.79a.407.407 0 0 1-.407-.407V10.607a.407.407 0 0 0-.407-.407h-.2a.408.408 0 0 1-.407-.408V7.026c0-.225.183-.407.408-.407h.064c.266 0 .478-.283.636-.85l1.208-3.93a.406.406 0 0 1 .389-.286M49.047 5.459h2.173c.041 0 .08.015.11.043l.285.268c.022.02.036.046.043.076.07.274.241.411.515.411h.48a.16.16 0 0 1 .16.16v1.369a.16.16 0 0 1-.16.16H50.94c-.757 0-1.236-.324-1.435-.971a.107.107 0 0 0-.007-.019l-.597-1.269a.16.16 0 0 1 .145-.228zm8.307-2.785v2.077a.16.16 0 0 1-.16.16h-.479a.16.16 0 0 0-.16.159v2.967c0 .822-.274 1.507-.82 2.055-.427.471-1.05.707-1.873.707h-2.76a.16.16 0 0 1-.16-.16V8.722a.16.16 0 0 1 .16-.159h1.62c.471 0 .707-.358.707-1.074V5.07a.159.159 0 0 0-.16-.159H48.5a.16.16 0 0 1-.16-.16V2.674a.16.16 0 0 1 .16-.159h4.77a.16.16 0 0 0 .16-.16v-.411c0-.089.071-.16.16-.16h2.807c.088 0 .16.071.16.16v.411c0 .088.071.16.16.16h.478a.16.16 0 0 1 .16.159zm-4.382 12.849c.548 0 .822-.122.822-.365a.16.16 0 0 0-.16-.16h-12.62a.16.16 0 0 0-.16.16v.205c0 .088.071.16.16.16h11.958zm-11.958-2.054h12.62a.16.16 0 0 0 .16-.159v-.115a.16.16 0 0 0-.16-.16h-12.62a.16.16 0 0 0-.16.16v.115a.16.16 0 0 0 .16.159zM47.54 2.4v1.37a.16.16 0 0 1-.159.16h-3.24a.159.159 0 0 0-.16.159v.046c0 .088.071.16.16.16h3.788c.088 0 .16.071.16.159v1.461a.159.159 0 0 1-.16.159H37.271a.16.16 0 0 1-.16-.159V4.454a.16.16 0 0 1 .16-.159h3.605a.16.16 0 0 0 .16-.16v-.046a.159.159 0 0 0-.16-.159h-3.149a.16.16 0 0 1-.159-.16V2.4a.16.16 0 0 1 .16-.16h3.148c.09 0 .16-.071.16-.159v-.389a.16.16 0 0 1 .16-.159h2.624c.088 0 .161.072.161.159v.389c0 .088.071.159.16.159h3.24a.16.16 0 0 1 .16.16zm0 4.451v1.392a.159.159 0 0 1-.159.159h-3.24a.16.16 0 0 0-.16.161v.114c0 .088.071.159.16.159h3.788c.088 0 .16.071.16.16v.753c0 .088.07.16.16.16h.808c.12 0 .197.127.14.234l-.46.878a.16.16 0 0 0 .14.234h8.043a.16.16 0 0 1 .16.16v4.565c0 .821-.799 1.232-2.396 1.232h-5.729a.159.159 0 0 0-.159.16v.319c0 .088.071.16.16.16h8.512a.16.16 0 0 1 .16.16v2.784c0 1.004-1.073 1.506-3.218 1.506h-3.765a.16.16 0 0 1-.16-.159v-1.37a.16.16 0 0 1 .16-.16h2.51c.593 0 .89-.122.89-.365v-.365a.159.159 0 0 0-.16-.159h-4.93a.159.159 0 0 0-.159.159v2.625a.16.16 0 0 1-.16.159H45.03a.16.16 0 0 1-.16-.159v-2.625a.159.159 0 0 0-.159-.159h-4.04a.16.16 0 0 0-.16.159v2.168c0 .089-.07.16-.159.16H37.18a.159.159 0 0 1-.159-.16v-4.039a.16.16 0 0 1 .16-.16h7.531a.16.16 0 0 0 .16-.16v-.319a.159.159 0 0 0-.16-.16h-6.984a.159.159 0 0 1-.159-.16v-5.637a.16.16 0 0 1 .16-.16h6.614a.157.157 0 0 0 .14-.083l.124-.229a.16.16 0 0 0-.14-.235H37.27a.161.161 0 0 1-.16-.16V8.996a.16.16 0 0 1 .16-.16h3.605c.09 0 .16-.071.16-.159v-.114a.16.16 0 0 0-.16-.161h-3.058a.16.16 0 0 1-.16-.159V6.851c0-.088.072-.161.16-.161h3.058c.09 0 .16-.071.16-.159v-.022a.16.16 0 0 1 .16-.16h2.624a.16.16 0 0 1 .161.16v.022c0 .088.071.159.16.159h3.24a.16.16 0 0 1 .16.161zM100.893 18.9h2.604c.113 0 .21.074.242.183l.13.457c.09.41.327.616.708.616h.205c.138 0 .25.112.25.251v1.825a.251.251 0 0 1-.25.251h-1.803c-.943 0-1.537-.448-1.78-1.346l-.547-1.917a.25.25 0 0 1 .24-.32zm.215-2.92c.472 0 .707-.244.707-.73a.25.25 0 0 0-.251-.252h-2.26a.25.25 0 0 0-.25.251v.48a.25.25 0 0 0 .25.25h1.804zm-1.803-3.493h2.259a.25.25 0 0 0 .25-.25v-.389a.251.251 0 0 0-.25-.25h-2.26a.251.251 0 0 0-.25.25v.388a.25.25 0 0 0 .25.251zm0-3.377h2.259a.25.25 0 0 0 .25-.25v-.39a.251.251 0 0 0-.25-.25h-2.26a.251.251 0 0 0-.25.25v.39a.25.25 0 0 0 .25.25zm5.728-6.619v2.077a.251.251 0 0 1-.251.251h-2.196a.252.252 0 0 0-.245.195l-.068.297a.252.252 0 0 0 .245.307h1.99a.25.25 0 0 1 .25.251v10.726c0 1.31-.744 1.963-2.235 1.963H96.36a.25.25 0 0 1-.251-.25V5.868a.25.25 0 0 1 .25-.25h2.248a.25.25 0 0 0 .243-.19l.076-.297a.25.25 0 0 0-.243-.313h-2.415a.25.25 0 0 1-.251-.25V2.49a.25.25 0 0 1 .25-.25h8.514c.138 0 .25.111.25.25zm-7.84 16.41h2.587c.17 0 .292.166.239.328l-.76 2.318c-.213.624-.761.936-1.643.936h-1.53a.251.251 0 0 1-.251-.25v-1.826c0-.139.113-.25.25-.25h.48c.06 0 .112-.067.157-.196l.007-.02.222-.853a.251.251 0 0 1 .243-.188zm-6.356 1.072h.754a.25.25 0 0 0 .25-.25v-.115a.25.25 0 0 0-.25-.25h-.754a.251.251 0 0 0-.251.25v.114c0 .14.113.251.25.251zm1.005-2.922v-.113a.25.25 0 0 0-.251-.25h-.754a.251.251 0 0 0-.251.25v.113c0 .14.113.251.25.251h.755a.25.25 0 0 0 .25-.25zm0-2.67v-.114a.251.251 0 0 0-.251-.25h-.754a.252.252 0 0 0-.251.25v.114c0 .14.113.251.25.251h.755a.25.25 0 0 0 .25-.25zM87.46 8.22c0 .14.113.251.25.251h4.93c.41 0 .617-.144.617-.433v-.023a.251.251 0 0 0-.251-.25H87.71a.252.252 0 0 0-.251.25v.205zm7.942-6.253c.138 0 .25.113.25.251V3.29c0 1.263-.89 1.894-2.67 1.894h-5.271a.251.251 0 0 0-.251.251v.024c0 .137.113.251.25.251h7.874a.25.25 0 0 1 .25.251v2.692c0 1.248-.767 1.872-2.303 1.872h-5.82a.251.251 0 0 0-.251.251v.936c0 .138.113.251.25.251h.206a.47.47 0 0 0 .456-.275l.453-.766a.252.252 0 0 1 .216-.124h2.3c.188 0 .309.2.224.366l-.222.433a.252.252 0 0 0 .224.366h.347a.25.25 0 0 0 .237-.17l.249-.733a.253.253 0 0 1 .238-.17h2.048a.25.25 0 0 1 .238.331l-.14.41a.251.251 0 0 0 .239.332h.653a.25.25 0 0 1 .25.25v1.552a.25.25 0 0 1-.25.251H94.58a.251.251 0 0 0-.251.251v.114a.25.25 0 0 0 .25.251h.753c.139 0 .25.113.25.251v1.552a.251.251 0 0 1-.25.252h-.752a.25.25 0 0 0-.251.251v.113a.25.25 0 0 0 .25.251h.822c.138 0 .25.114.25.252v1.552a.251.251 0 0 1-.25.251h-.821a.25.25 0 0 0-.251.251v.114a.25.25 0 0 0 .25.251h.822c.138 0 .25.113.25.251v1.552a.251.251 0 0 1-.25.251h-4.565a.251.251 0 0 0-.251.251v.046a.25.25 0 0 1-.251.251h-2.076a.251.251 0 0 1-.251-.25v-7.807a.251.251 0 0 0-.252-.25h-.045a.251.251 0 0 0-.251.25v5.455c0 1.673-.662 2.51-1.986 2.51h-.89a.251.251 0 0 1-.251-.25V19.88c0-.138.113-.25.25-.25h.047c.167 0 .25-.09.25-.274V3.017c0-.139.114-.252.252-.252h6.71c.456 0 .717-.195.782-.587a.25.25 0 0 1 .245-.212h2.533z"/>
    </g>
</svg>
