<svg xmlns="http://www.w3.org/2000/svg" width="244" height="40" viewBox="0 0 244 40">
    <g fill="none" fill-rule="evenodd">
        <path fill="#4BBEBE" d="M25.718 30.762c-1.79-3.57-3.137-6.344-4.885-9.913l.016-.006c-.618-1.404-2.098-1.872-3.42-1.344-.437.176-5.512 2.184-6.678 2.658-1.94.515-2.9-.578-3.287-1.238-.5-1.041-3.388-7.394-4.47-9.817-.226-.506-.333-.927-.494-1.45-.398-1.303.836-2.444 1.888-2.906 1.337-.587 3.263-.347 3.91.559.278.388 3.166 6.78 4.406 9.544l-.004.001c.61 1.404 2.09 1.878 3.413 1.353 1.74-.69 7.381-3.13 7.815-3.315 1.309-.555 1.94-1.895 1.252-3.27l-.017.006c-1.627-3.617-2.9-6.423-4.504-10.07C20.043.153 18.561-.317 17.241.213 11.6 2.468 10.529 2.96 4.88 5.197c-.876.345-2.786 1.369-3.188 2.18-.766.966-.83 2.468-.309 3.617.967 2.131 10.928 23.104 10.928 23.104.209.428.415.866.532 1.32.276 1.06-.837 2.555-2.201 3.08-1.074.417-2.807.498-3.563-.656-.304-.464-.562-.825-.808-1.322-.604-1.222-1.204-2.445-1.804-3.669-1.05-2.147-2.374-4.909-3.105-6.384a.557.557 0 0 0-.294-.26c-.263-.105-.509-.094-.686-.003-.176.088-.377.216-.383.442-.002.137.047.347.103.46l1.246 2.551c.317.67.601 1.269.83 1.733a1617.67 1617.67 0 0 1 3.09 6.316c.553 1.136 1.78 2.104 3.056 2.228.911.27 3.007-.359 3.871-.73 5.574-2.393 6.687-2.799 12.27-5.172 1.31-.555 1.94-1.897 1.252-3.27"/>
        <path fill="#4BBEBE" d="M10.937 18.12c.164.316-.005.687-.377.827-.373.14-.807-.005-.97-.322L5.063 9.88c-.164-.317.005-.687.378-.826.372-.14.808.004.971.32l4.525 8.746zM8.936 33.115c.165.316 0 .69-.37.83-.366.142-.8 0-.964-.317l-4.538-8.741c-.165-.317 0-.69.368-.832.368-.142.799.002.964.317l4.54 8.743z"/>
        <path fill="#4BBCBC" d="M53 22.841C53 25.828 50.292 28 46.135 28c-2.681 0-4.829-.608-6.382-1.27-.403-.158-.753-.61-.753-1.086 0-.58.432-1.11 1.1-1.11.16 0 .321.027.51.107 1.207.527 2.976 1.083 5.282 1.083 2.656 0 4.69-.74 4.69-3.044 0-3.915-11.393-1.746-11.393-8.253 0-2.938 2.414-5.427 6.946-5.427 2.09 0 3.887.343 5.336.872.375.133.75.427.75 1.061 0 .53-.4 1.112-1.075 1.112a1.24 1.24 0 0 1-.426-.107 13.243 13.243 0 0 0-4.318-.714c-2.708 0-4.771 1.03-4.771 3.018 0 4.578 11.369 1.611 11.369 8.6M78 10.162c0 .647-.552 1.135-1.254 1.135h-5.92v15.488c0 .677-.613 1.215-1.34 1.215-.727 0-1.311-.538-1.311-1.215V11.297h-5.952c-.701 0-1.223-.488-1.223-1.135C61 9.512 61.522 9 62.223 9h14.523C77.448 9 78 9.512 78 10.162M99.537 18.498c0-4.074-2.573-7.249-7.037-7.249-4.496 0-7.036 3.175-7.036 7.249 0 4.075 2.54 7.253 7.036 7.253 4.464 0 7.037-3.178 7.037-7.253m2.463 0C101.894 24.03 98.267 28 92.5 28c-5.792 0-9.39-3.97-9.5-9.502C83.11 12.97 86.708 9 92.5 9c5.767 0 9.394 3.97 9.5 9.498M125.999 25.405c-.028.502-.254.766-.624.953-1.758.925-3.682 1.642-6.457 1.642-5.637 0-9.918-3.6-9.918-9.502 0-5.9 4.281-9.498 9.918-9.498 2.775 0 4.7.715 6.457 1.642.37.184.596.45.624.951.03.556-.423 1.06-1.136 1.06-.138 0-.337-.028-.506-.107-1.502-.74-2.975-1.244-5.184-1.244-5.016 0-7.592 3.123-7.592 7.196 0 4.075 2.576 7.198 7.592 7.198 2.209 0 3.682-.501 5.184-1.245.17-.077.368-.103.506-.103.713 0 1.166.501 1.136 1.057M149.999 26.82c.03.645-.56 1.18-1.296 1.18-.443 0-.827-.187-1.062-.48l-7.602-8.83-3.357 3.088v5.016c0 .671-.62 1.206-1.354 1.206-.737 0-1.328-.535-1.328-1.206V10.238c0-.672.591-1.238 1.328-1.238.735 0 1.354.566 1.354 1.238v8.531l10.077-9.337A1.399 1.399 0 0 1 147.761 9c.705 0 1.296.51 1.237 1.156-.028.298-.119.564-.324.751l-6.808 6.17 7.809 8.963c.21.243.324.485.324.78M162.673 11.298v5.974h9.038c.703 0 1.261.512 1.261 1.159 0 .65-.558 1.136-1.261 1.136h-9.038v7.219c0 .676-.616 1.214-1.354 1.214-.731 0-1.319-.538-1.319-1.214V10.242c0-.674.588-1.242 1.32-1.242h11.419c.702 0 1.261.513 1.261 1.163 0 .647-.559 1.135-1.261 1.135h-10.066zM197 26.857c0 .652-.542 1.143-1.232 1.143h-11.482c-.714 0-1.286-.544-1.286-1.223V10.251c0-.679.572-1.251 1.286-1.251h11.482c.69 0 1.232.516 1.232 1.17 0 .653-.542 1.144-1.232 1.144h-10.166v6.016h9.136c.688 0 1.23.516 1.23 1.167 0 .656-.542 1.144-1.23 1.144h-9.136v6.046h10.166c.69 0 1.232.515 1.232 1.17M222 26.857c0 .652-.546 1.143-1.232 1.143h-11.48c-.715 0-1.288-.544-1.288-1.223V10.254c0-.68.573-1.254 1.287-1.254h11.481c.686 0 1.232.519 1.232 1.173 0 .653-.546 1.144-1.232 1.144h-10.165v6.015h9.134c.688 0 1.231.516 1.231 1.17 0 .65-.543 1.14-1.23 1.14h-9.135v6.045h10.165c.686 0 1.232.515 1.232 1.17M244 26.785c0 .674-.586 1.215-1.288 1.215h-9.946c-.982 0-1.766-.758-1.766-1.704v-16.05A1.26 1.26 0 0 1 232.26 9c.7 0 1.29.57 1.29 1.247v15.291h9.162c.702 0 1.288.568 1.288 1.247"/>
    </g>
</svg>
