<svg xmlns="http://www.w3.org/2000/svg" xmlns:xlink="http://www.w3.org/1999/xlink" width="166" height="28" viewBox="0 0 166 28">
    <defs>
        <path id="a" d="M0 .486h17.188v26.83H0z"/>
        <path id="c" d="M.07.52h8.584v13.11H.07z"/>
    </defs>
    <g fill="none" fill-rule="evenodd">
        <g transform="translate(0 .198)">
            <mask id="b" fill="#fff">
                <use xlink:href="#a"/>
            </mask>
            <path fill="#FFF" d="M17.002 21.12c-1.183-2.394-2.074-4.255-3.23-6.648l.01-.005c-.408-.942-1.386-1.256-2.26-.902-.29.118-3.644 1.465-4.415 1.783-1.282.346-1.918-.388-2.174-.83-.33-.699-2.24-4.96-2.953-6.585-.15-.34-.221-.623-.328-.974C1.39 6.086 2.205 5.32 2.9 5.01c.884-.393 2.158-.233 2.586.375.183.261 2.092 4.549 2.912 6.402h-.003c.404.943 1.383 1.26 2.257.909 1.15-.463 4.88-2.1 5.167-2.224.863-.372 1.282-1.271.828-2.193l-.012.004c-1.076-2.427-1.917-4.309-2.978-6.754C13.25.587 12.27.272 11.397.627 7.669 2.14 6.96 2.472 3.227 3.972c-.58.231-1.843.917-2.108 1.462C.613 6.08.57 7.089.914 7.86c.64 1.43 7.225 15.498 7.225 15.498.138.287.274.581.351.886.183.71-.553 1.713-1.455 2.066-.71.279-1.855.333-2.355-.441-.2-.311-.371-.552-.534-.886-.399-.82-.796-1.64-1.193-2.462-.694-1.44-1.569-3.293-2.052-4.282a.369.369 0 0 0-.195-.174.547.547 0 0 0-.453-.003c-.116.06-.25.145-.253.298a.818.818 0 0 0 .068.308c.214.445.506 1.05.823 1.712.21.449.398.85.549 1.161.683 1.413 1.366 2.824 2.043 4.237.366.762 1.176 1.412 2.02 1.495.602.181 1.988-.241 2.56-.49 3.684-1.605 4.42-1.878 8.111-3.47.866-.372 1.283-1.271.828-2.193" mask="url(#b)"/>
        </g>
        <path fill="#FFF" d="M7.216 13.343a.466.466 0 0 1-.257.626.51.51 0 0 1-.658-.243L3.233 7.1a.466.466 0 0 1 .257-.626.51.51 0 0 1 .659.244l3.067 6.625zM6.463 24.347a.465.465 0 0 1-.253.627.51.51 0 0 1-.66-.24l-3.108-6.607a.467.467 0 0 1 .252-.629.51.51 0 0 1 .66.24l3.11 6.609zM36.519 17.022c0 2.105-1.87 3.635-4.737 3.635-1.849 0-3.33-.428-4.402-.894a.869.869 0 0 1-.52-.765c0-.409.299-.782.76-.782.11 0 .22.018.352.074a8.82 8.82 0 0 0 3.643.764c1.833 0 3.236-.521 3.236-2.145 0-2.759-7.86-1.23-7.86-5.816 0-2.07 1.666-3.824 4.791-3.824 1.443 0 2.683.241 3.681.615.26.094.519.3.519.747 0 .373-.277.783-.742.783a.828.828 0 0 1-.294-.075 8.97 8.97 0 0 0-2.979-.503c-1.869 0-3.292.726-3.292 2.127 0 3.226 7.844 1.135 7.844 6.059M52.05 8.353a.777.777 0 0 1-.795.783h-3.756v10.683a.847.847 0 0 1-.85.839.831.831 0 0 1-.831-.839V9.136h-3.776a.76.76 0 0 1-.776-.783c0-.448.331-.802.776-.802h9.213c.444 0 .795.354.795.802M67.913 13.961c0-2.87-1.757-5.107-4.809-5.107-3.073 0-4.809 2.237-4.809 5.107 0 2.873 1.736 5.11 4.809 5.11 3.052 0 4.81-2.237 4.81-5.11m1.683 0c-.073 3.9-2.552 6.697-6.493 6.697-3.958 0-6.418-2.798-6.492-6.697.074-3.895 2.534-6.692 6.492-6.692 3.941 0 6.42 2.797 6.493 6.692M85.248 18.829c-.019.353-.166.54-.408.671-1.147.652-2.403 1.158-4.216 1.158-3.682 0-6.477-2.537-6.477-6.697 0-4.156 2.795-6.692 6.477-6.692 1.813 0 3.069.504 4.216 1.157.242.13.39.317.408.67.02.392-.276.747-.742.747-.09 0-.22-.02-.33-.075-.98-.522-1.943-.877-3.385-.877-3.276 0-4.959 2.2-4.959 5.07 0 2.873 1.683 5.073 4.959 5.073 1.442 0 2.404-.353 3.385-.877a.777.777 0 0 1 .33-.073c.466 0 .761.353.742.745M101.314 19.838a.801.801 0 0 1-.814.82.817.817 0 0 1-.667-.333l-4.772-6.136-2.109 2.145v3.485a.847.847 0 0 1-.85.838.832.832 0 0 1-.833-.838V8.316c0-.467.37-.86.833-.86.462 0 .85.393.85.86v5.928l6.328-6.488c.128-.15.35-.3.628-.3.443 0 .814.355.777.803-.018.207-.074.392-.203.522l-4.275 4.288 4.903 6.226a.85.85 0 0 1 .204.543M110.7 9.136v4.12h5.698c.444 0 .795.354.795.8a.777.777 0 0 1-.795.784H110.7v4.98a.847.847 0 0 1-.854.837.831.831 0 0 1-.831-.838V8.41c0-.466.37-.858.831-.858h7.2c.443 0 .795.353.795.802a.778.778 0 0 1-.796.783h-6.345zM133.994 19.874a.778.778 0 0 1-.796.783h-7.419a.832.832 0 0 1-.832-.838V8.5c0-.465.37-.857.832-.857h7.419c.445 0 .796.354.796.802a.778.778 0 0 1-.796.784h-6.569v4.12h5.902a.79.79 0 0 1 .796.8c0 .448-.35.784-.796.784h-5.902v4.14h6.569c.445 0 .796.354.796.802M150.035 19.874a.778.778 0 0 1-.795.783h-7.419a.832.832 0 0 1-.832-.838V8.5c0-.465.37-.859.832-.859h7.419c.443 0 .795.356.795.804a.778.778 0 0 1-.795.784h-6.57v4.12h5.904c.444 0 .795.353.795.802a.777.777 0 0 1-.795.782h-5.903v4.14h6.569c.443 0 .795.354.795.802"/>
        <g transform="translate(157.192 7.027)">
            <mask id="d" fill="#fff">
                <use xlink:href="#c"/>
            </mask>
            <path fill="#FFF" d="M8.654 12.792a.847.847 0 0 1-.85.839H1.237A1.166 1.166 0 0 1 .07 12.455V1.38C.07.913.44.52.903.52c.463 0 .85.393.85.86v10.552h6.05c.464 0 .851.39.851.86" mask="url(#d)"/>
        </g>
    </g>
</svg>
