<svg xmlns="http://www.w3.org/2000/svg" xmlns:xlink="http://www.w3.org/1999/xlink" width="96" height="96" viewBox="0 0 96 96">
    <defs>
        <path id="prefix__a" d="M0 0.082L95.646 0.082 95.646 95.995 0 95.995z"/>
        <path id="prefix__c" d="M0 0.082L95.291 0.082 95.291 95.643 0 95.643z"/>
    </defs>
    <g fill="none" fill-rule="evenodd" transform="translate(0 -.082)">
        <mask id="prefix__b" fill="#fff">
            <use xlink:href="#prefix__a"/>
        </mask>
        <path fill="#FFF" d="M81.374 14.118C72.71 5.41 60.718.036 47.481.081 21.167.173-.089 21.638.001 48.026c.045 13.294 5.502 25.301 14.27 33.934 8.664 8.709 20.656 14.081 33.892 14.035 26.315-.09 47.571-21.555 47.482-47.943-.046-13.294-5.503-25.3-14.27-33.933" mask="url(#prefix__b)"/>
        <path fill="#00951E" d="M59.104 41.79c-.002-.034-.01-.067-.013-.103-.008-.103-.023-.206-.038-.308-.014-.105-.03-.209-.05-.312-.023-.13-.053-.257-.086-.384-.016-.06-.03-.12-.047-.179-.77-2.704-3.25-4.682-6.193-4.672l-.217.001-7.585.025h-.001l-.001.001c-.474.002-1.025.208-1.024.684l.039 11.283c.002.477.555.911 1.03.91l7.803-.027v.005c.034 0 .067-.005.1-.005.224-.005.445-.022.663-.048.07-.009.14-.024.21-.036.145-.023.29-.044.43-.076.085-.019.167-.046.25-.069.124-.033.248-.065.369-.105.087-.029.17-.065.255-.099.113-.043.226-.085.335-.133.085-.04.167-.083.25-.125.105-.054.21-.105.31-.164.084-.046.162-.099.24-.15.098-.06.196-.123.288-.189.079-.055.153-.116.227-.174.089-.07.179-.14.264-.214.072-.063.14-.13.21-.196.082-.078.163-.156.24-.237.066-.07.129-.143.192-.217.072-.083.145-.168.213-.257.06-.077.117-.157.173-.237.064-.089.127-.182.186-.276.053-.083.103-.168.15-.253.057-.097.109-.195.16-.295.044-.088.086-.178.126-.268.046-.103.089-.206.129-.312.036-.093.069-.186.1-.28.037-.11.069-.218.098-.328.028-.097.052-.195.074-.294.025-.112.045-.226.065-.34.016-.1.032-.2.044-.304.014-.115.022-.233.03-.35.006-.105.013-.208.015-.313 0-.04.005-.079.005-.119 0-.082-.01-.162-.013-.243-.003-.073 0-.145-.005-.218"/>
        <path fill="#00951E" d="M53.591 58.544l-8.639.002c-.475.002-.679.207-.677.685l.043 12.512c.003 1.105-.886 2.002-1.987 2.006l-7.365.025c-1.1.004-1.996-.888-2-1.992l-.149-43.694c-.004-1.104.884-2.002 1.986-2.006l18.677-.063h.227l.002.004c8.851.093 16.013 7.298 16.043 16.203.03 8.982-7.205 16.288-16.16 16.318M47.835.434C21.522.524.266 21.988.356 48.377c.09 26.388 21.493 47.708 47.807 47.617 26.315-.09 47.572-21.555 47.482-47.943C95.555 21.662 74.151.344 47.836.434"/>
        <path fill="#07B43B" d="M58.75 41.438l-.014-.102c-.008-.104-.023-.206-.038-.308-.014-.105-.029-.21-.049-.312-.024-.131-.054-.258-.087-.385-.016-.06-.03-.12-.047-.18-.77-2.703-3.25-4.681-6.193-4.671h-.217l-7.585.027h-.002c-.474.002-.677.207-.676.683l.04 11.515c.002.477.206.68.681.678l7.803-.026v.005c.034 0 .067-.005.101-.005.223-.005.444-.021.662-.047.071-.01.141-.025.211-.036.144-.024.29-.045.43-.076.084-.02.166-.046.25-.07.123-.033.247-.064.368-.105.087-.03.17-.064.255-.098.113-.043.226-.085.335-.134.085-.04.167-.083.25-.125.105-.053.21-.105.311-.164.083-.046.161-.1.24-.15.097-.061.195-.122.287-.188.08-.056.152-.116.227-.175.09-.07.18-.14.264-.214.072-.063.141-.13.211-.195.081-.08.162-.156.24-.238.065-.07.128-.143.191-.216.072-.084.145-.17.213-.257.06-.077.117-.158.173-.237.064-.09.127-.182.186-.277.053-.082.103-.167.151-.253.056-.097.108-.195.16-.295.043-.088.085-.178.125-.267.046-.103.09-.207.13-.313.035-.093.068-.186.1-.281.036-.108.068-.217.097-.326.027-.098.052-.196.074-.294.025-.113.045-.226.065-.34.016-.101.032-.201.044-.304.014-.116.022-.233.03-.351.006-.104.013-.207.015-.312 0-.04.005-.08.005-.12 0-.082-.01-.162-.013-.243-.003-.073.001-.145-.005-.218"/>
        <g>
            <mask id="prefix__d" fill="#fff">
                <use xlink:href="#prefix__c"/>
            </mask>
            <path fill="#07B43B" d="M53.237 58.193l-8.64.002c-.475 0-.678.207-.676.684l.043 12.513c.003 1.104-.886 2.002-1.987 2.006l-7.365.024c-1.101.004-1.996-.887-2-1.991l-.15-43.695c-.003-1.104.885-2.002 1.987-2.005l18.677-.064.227-.001.002.006c8.85.093 16.013 7.297 16.043 16.203.03 8.98-7.205 16.287-16.161 16.318M47.482.082C21.168.172-.09 21.637 0 48.025c.09 26.389 21.494 47.708 47.808 47.618C74.124 95.552 95.38 74.088 95.29 47.7 95.2 21.31 73.797-.008 47.48.082" mask="url(#prefix__d)"/>
        </g>
    </g>
</svg>
