<svg xmlns="http://www.w3.org/2000/svg" width="77" height="77" viewBox="0 0 77 77">
    <g fill="none" fill-rule="evenodd">
        <path fill="#DCFAF9" d="M76.176 38.088c0 21.035-17.053 38.088-38.088 38.088S0 59.123 0 38.088 17.053 0 38.088 0s38.088 17.053 38.088 38.088"/>
        <path fill="#4D4D4D" d="M36.715 61.401v1.11H23.351V61.4h5.594v-11.64h1.17v4.59h5.58v1.111h-5.58v5.94zM48.64 57.246l2.22-.045a16.917 16.917 0 0 0-.885-.705l.24-.135H48.64v.885zm0-1.59h2.55v-.96h-2.55v.96zm0-1.635h2.55v-.93h-2.55v.93zm-3.57 1.635h2.49v-.96h-2.49v.96zm0-1.635h2.49v-.93h-2.49v.93zm1.425 8.445c-.375-.555-1.17-1.425-1.875-2.025l.826-.525c.689.57 1.514 1.395 1.904 1.95l-.855.6zm4.41-3.449h2.1v.9h-2.1v2.13c0 .6-.135.884-.6 1.034-.45.15-1.2.15-2.34.15a3.839 3.839 0 0 0-.36-.945c.93.03 1.695.03 1.92 0 .24 0 .3-.06.3-.255v-2.115h-6.794v-.899h6.795v-.976c-2.371.075-4.68.15-6.39.181l-.106-.9c1.14 0 2.625-.015 4.23-.046v-.915h-3.51v-3.974h3.51v-.856h-4.11v-.854h4.11v-1.035h1.08v1.035h4.215v.854H48.64v.856h3.615v3.974h-1.11c.75.555 1.516 1.26 1.95 1.77l-.795.511c-.15-.196-.36-.42-.6-.66l-.794.03v1.005zm-7.214-9.12a22.203 22.203 0 0 1-1.545 3.24v10.05h-1.05V54.77c-.48.691-.99 1.305-1.516 1.845-.12-.255-.42-.84-.63-1.08 1.47-1.439 2.866-3.675 3.706-5.954l1.035.314z"/>
        <path stroke="#4D4D4D" stroke-linecap="round" d="M49.565 32.768v4.977H26.447v-4.977M38.005 30.275v-8.293M32.322 22.227l5.683-5.684 5.683 5.684"/>
    </g>
</svg>
