<svg xmlns="http://www.w3.org/2000/svg" xmlns:xlink="http://www.w3.org/1999/xlink" width="77" height="77" viewBox="0 0 77 77">
    <defs>
        <path id="a" d="M0 77.176h76.176V1H0z"/>
    </defs>
    <g fill="none" fill-rule="evenodd" transform="translate(0 -1)">
        <path fill="#DCFAF9" d="M76.176 39.088c0 21.035-17.053 38.088-38.088 38.088S0 60.123 0 39.088 17.053 1 38.088 1s38.088 17.053 38.088 38.088"/>
        <path fill="#4D4D4D" d="M34.116 60.496c.975.795 2.055 1.965 2.52 2.805l-.96.555c-.435-.81-1.455-2.009-2.43-2.85l.87-.51zm-.99-3.33c.39.36.795.915.99 1.275l-.675.33c-.165-.389-.554-.945-.945-1.32l.63-.285zm-1.65 2.145c-.12-.45-.435-1.155-.735-1.679l.75-.21c.315.494.66 1.184.765 1.635l-.78.254zm-2.55-3.254h2.34v-.855h-2.34v.855zm0-1.606h2.34v-.854h-2.34v.854zm0-1.59h2.34v-.84h-2.34v.84zm.376 6.736c-.031-.526-.226-1.32-.451-1.936l.795-.165c.255.615.435 1.41.495 1.905l-.84.196zm1.335 2.46c-.466-.57-1.441-1.32-2.34-1.786l.734-.6c.885.466 1.89 1.185 2.385 1.755l-.78.631zm5.429-6s-.015.285-.03.42c-.165 2.144-.345 3-.66 3.33-.21.224-.435.314-.781.344-.27.015-.824.015-1.364-.014a2.79 2.79 0 0 0-.24-.856c.525.061.975.061 1.155.061.195 0 .315-.016.39-.136.195-.194.345-.81.48-2.31h-7.14v-5.729h7.844v.854h-3.434v.84h2.88v.736h-2.88v.854h2.88v.75h-2.88v.856h3.78zm-4.395 7.02c.66 0 .78-.18.84-1.47.255.18.69.314 1.005.374-.15 1.68-.495 2.07-1.725 2.07h-3.03c-1.59 0-1.98-.3-1.98-1.409v-2.01h1.095v2.01c0 .375.136.434.96.434h2.835zm-3.435-5.61c-.255.9-.63 1.89-1.274 2.49l-.781-.496c.6-.54 1.005-1.454 1.23-2.295l.825.301zm-2.354-4.11c-.54-.51-1.681-1.2-2.611-1.635l.675-.78c.915.39 2.07 1.05 2.64 1.544l-.704.87zm.87 2.325a55.472 55.472 0 0 1-2.761 3.75l-.854-.795c.825-.87 1.995-2.34 2.939-3.66l.676.705zm-3.811 7.634c.96-.69 1.635-1.799 1.995-2.88l.93.375c-.404 1.125-1.02 2.355-2.04 3.12l-.885-.615z"/>
        <mask id="b" fill="#fff">
            <use xlink:href="#a"/>
        </mask>
        <path fill="#4D4D4D" d="M46.356 59.386h3.915v-1.785h-3.915v1.785zm.389 3.51c-.089-.57-.45-1.485-.87-2.174l.976-.256c.42.675.795 1.56.899 2.13l-1.005.3zm-1.349-2.625h5.88v-3.555h-5.88v3.555zm5.535.42a31.45 31.45 0 0 1-1.155 2.235h2.819v.915h-8.444v-.915h4.575c.39-.704.885-1.77 1.125-2.52l1.08.285zm-4.516-5.61a7.285 7.285 0 0 1-1.829 1.77 5.32 5.32 0 0 0-.675-.75c.629-.375 1.245-.974 1.754-1.695-.359-.33-.915-.765-1.379-1.05l.615-.719c.434.254.929.615 1.29.915.285-.48.51-1.02.689-1.56h-2.189v-.916h2.564l.196-.029.645.224c-.301 1.351-.81 2.55-1.471 3.51h3.571c-.75-1.109-1.321-2.46-1.696-3.915l.931-.18c.119.436.255.856.42 1.276.404-.346.869-.75 1.14-1.05l.674.614c-.45.436-1.004.885-1.484 1.215.149.301.3.601.48.87.45-.3.974-.72 1.29-1.005l.674.616c-.464.39-1.035.764-1.53 1.05.525.69 1.11 1.26 1.785 1.664-.255.165-.585.54-.75.81a6.97 6.97 0 0 1-1.844-1.845v.795h-3.871v-.615zm-4.784-2.175c-.21-.54-.72-1.38-1.125-2.01l.765-.479c.434.6.93 1.394 1.17 1.934l-.81.555zm-1.185 9.48h2.295v-2.475h-2.295v2.475zm-.87-4.515h3.99v-.885h-3.99v.885zm0-1.949h3.99v-.886h-3.99v.886zm4.065 7.394h-3.195v.705h-.885v-5.04h4.08v4.335zm-4.635-9.33H44v-.915h-4.994v.915z" mask="url(#b)"/>
        <path stroke="#4D4D4D" stroke-linecap="round" d="M41.66 15.678a4.987 4.987 0 0 0 4.318 2.493c3.838 0 6.239 4.155 4.319 7.48a4.984 4.984 0 0 0 0 4.986c1.92 3.324-.48 7.479-4.32 7.479a4.988 4.988 0 0 0-4.317 2.494c-1.92 3.324-6.717 3.324-8.637 0a4.985 4.985 0 0 0-4.319-2.494c-3.838 0-6.236-4.155-4.317-7.48a4.99 4.99 0 0 0 0-4.985c-1.92-3.325.48-7.48 4.317-7.48 1.782 0 3.428-.95 4.319-2.493 1.92-3.324 6.717-3.324 8.636 0z" mask="url(#b)"/>
        <path stroke="#4D4D4D" stroke-linecap="round" d="M32.033 27.343l4.23 4.23 7.383-7.382" mask="url(#b)"/>
    </g>
</svg>
