<svg xmlns="http://www.w3.org/2000/svg" width="77" height="77" viewBox="0 0 77 77">
    <g fill="none" fill-rule="evenodd">
        <path fill="#DCFAF9" d="M76.176 38.088c0 21.035-17.053 38.088-38.088 38.088C17.052 76.176 0 59.123 0 38.088S17.052 0 38.09 0c21.034 0 38.087 17.053 38.087 38.088"/>
        <path fill="#4D4D4D" d="M36.26 58.416a28.883 28.883 0 0 1-2.13 1.65c.794.885 1.725 1.605 2.714 2.055-.239.195-.569.6-.75.885-2.04-1.035-3.734-3.194-4.68-5.624H30.38v4.41l2.46-.81c0 .285.045.69.09.914-2.88 1.02-3.3 1.215-3.555 1.425-.09-.27-.375-.78-.569-1.02.224-.15.524-.465.524-1.065v-3.854h-.689v-.976h1.05v-6.179h6.54v.915h-5.46v1.17h4.844v.84H30.77v1.17h4.934v.855H30.77v1.23h5.85v.975h-4.23c.3.704.72 1.394 1.184 2.024.645-.525 1.38-1.184 1.831-1.695l.854.705zm-7.966.511c0 .42-.059.72-.329.9-.256.18-.6.194-1.11.194-.015-.27-.165-.69-.285-.959.344.014.615.014.735.014.104-.014.135-.045.135-.18v-5.535h-1.095v9.87h-.96v-9.87h-.99v6.795h-.87v-7.8h1.86v-2.804h.96v2.804h1.95v6.571zM50.014 57.427v-2.985H42.41v1.214c0 .555-.015 1.14-.076 1.77h7.68zm1.11-4.021v5.866h-1.11v-.795h-7.799c-.27 1.71-.855 3.479-2.16 4.784-.18-.21-.6-.614-.855-.75 1.905-1.935 2.1-4.725 2.1-6.855v-4.544c3.015-.331 6.525-.915 8.46-1.545l.914.839c-2.175.66-5.369 1.17-8.264 1.53v1.47h8.714z"/>
        <path stroke="#4D4D4D" stroke-linecap="round" d="M44.083 27.274a11.604 11.604 0 0 1 5.12 9.63v3.816H25.979v-3.815c0-3.948 1.97-7.436 4.98-9.534M44.06 20.038a6.47 6.47 0 1 1-12.939 0 6.47 6.47 0 1 1 12.94 0z"/>
    </g>
</svg>
