<svg xmlns="http://www.w3.org/2000/svg" width="77" height="77" viewBox="0 0 77 77">
    <g fill="none" fill-rule="evenodd">
        <path fill="#DCFAF9" d="M76.177 38.088c0 21.035-17.054 38.088-38.089 38.088C17.053 76.176 0 59.123 0 38.088S17.052 0 38.09 0c21.035 0 38.088 17.053 38.088 38.088"/>
        <path fill="#4D4D4D" d="M32.888 60.442c1.005.569 2.325 1.439 2.97 2.01l-.735.78c-.63-.585-1.905-1.5-2.924-2.115l.689-.675zm-3.795-.99h4.604v-1.005h-4.605v1.005zm0-1.696h4.604v-.93h-4.605v.93zm0-1.618H33.7v-.886h-4.605v.886zm0-1.561h4.604v-.96h-4.605v.96zm6.99 4.875v.974h-9.314v-.974h1.335v-6.614h2.204c.075-.316.15-.646.21-1.005h-3.18v-.915h3.345c.09-.481.15-.96.195-1.366l1.185.076c-.09.404-.18.854-.285 1.29h3.9v.915h-4.11c-.09.359-.18.689-.27 1.005h3.42v6.614h1.364zm-5.37 1.635c-.945.78-2.37 1.62-3.495 2.145-.136-.226-.465-.556-.69-.78 1.11-.495 2.52-1.321 3.225-1.995l.96.63zm-3.825-1.725c-1.455.63-2.985 1.29-4.186 1.769l-.419-1.11c.51-.15 1.11-.374 1.785-.63v-5.22h-1.68v-1.064h1.68v-3.404h1.08v3.404h1.68v1.065h-1.68v4.8c.51-.18 1.035-.39 1.546-.6l.195.99zM48.413 61.642c-.225-.495-.765-1.2-1.26-1.695l.735-.345c.51.465 1.08 1.154 1.305 1.635l-.78.405zm-2.34-1.891c.465.705.885 1.65 1.02 2.266l-.855.27c-.135-.616-.525-1.59-.974-2.31l.809-.226zm-1.815.12c.3.826.54 1.92.54 2.595l-.915.136c.015-.69-.21-1.785-.494-2.625l.869-.106zm-3.794 2.536c.599-.675 1.109-1.8 1.394-2.656l.885.36c-.314.885-.78 2.01-1.38 2.73l-.9-.434zm11.234-11.655v2.625h-1.065v-1.65H40.059v1.665h-1.036v-2.64h5.73a11.81 11.81 0 0 0-.495-.975l1.11-.315c.24.39.495.885.675 1.29h5.655zm-.435 7.619s-.015.316-.03.465c-.165 2.55-.33 3.585-.705 3.96-.24.285-.525.375-.93.39-.375.046-1.095.03-1.83-.015-.03-.3-.135-.705-.315-.974.735.059 1.41.075 1.665.059.255.016.39 0 .51-.12.21-.24.36-1.005.495-2.85h-8.07c-.855.706-1.845 1.29-2.834 1.74a7.154 7.154 0 0 0-.66-.884c1.53-.601 3.075-1.561 4.019-2.73h-1.77v-4.23c1.23-.255 2.655-.63 3.496-.975l.689.705c-.9.345-2.085.63-3.18.855v1.005h2.91v.795h-2.91v1.035h7.05v-1.035h-2.85v-.795h2.85v-.99h-3.105v-.825h4.125v4.455h-6.074c-.226.33-.481.66-.781.959h8.235z"/>
        <path stroke="#4D4D4D" stroke-linecap="round" stroke-linejoin="round" d="M27.697 28.556l14.229-14.23a3.38 3.38 0 0 1 4.78 0l4.604 4.606a3.377 3.377 0 0 1 0 4.779L37.082 37.94M36.46 20.106l7.122 7.122M39.254 17.312l9.229 9.229"/>
        <path stroke="#4D4D4D" stroke-linecap="round" stroke-linejoin="round" d="M27.697 28.556l-2.698 12.396 12.083-3.012M26.208 35.864l2.212 2.212M34.865 35.723l-7.168-7.167"/>
    </g>
</svg>
