<svg xmlns="http://www.w3.org/2000/svg" xmlns:xlink="http://www.w3.org/1999/xlink" width="77" height="77" viewBox="0 0 77 77">
    <defs>
        <path id="a" d="M0 77.176h76.176V1H0z"/>
    </defs>
    <g fill="none" fill-rule="evenodd" transform="translate(0 -1)">
        <path fill="#DCFAF9" d="M76.177 39.088c0 21.035-17.053 38.088-38.09 38.088C17.054 77.176 0 60.123 0 39.088S17.053 1 38.088 1c21.036 0 38.089 17.053 38.089 38.088"/>
        <path fill="#4D4D4D" d="M35.632 54.677c-.195-.495-.69-1.245-1.14-1.8l.84-.405c.48.524 1.005 1.245 1.215 1.755l-.915.45zm-2.835 5.189h2.79v-1.56h-2.79v1.56zm-.93.78h4.71v-3.134h-4.71v3.135zm1.125-8.19c-.315.376-.66.736-.974 1.02a6.5 6.5 0 0 0-.901-.63c.78-.6 1.5-1.484 1.906-2.384l1.049.24c-.134.3-.285.585-.464.885h4.514v.87h-5.13zm1.755 8.535c-.105.286-.24.57-.39.826 1.26.434 2.73 1.08 3.6 1.545l-.705.794c-.795-.464-2.22-1.125-3.465-1.59-.675.75-1.56 1.32-2.52 1.725-.12-.195-.494-.554-.704-.734 1.484-.526 2.715-1.441 3.194-2.745l.99.179zm-6.014-4.184h5.114v-.811h-5.114v.81zm-.406-2.325c-.09-.435-.375-1.125-.644-1.635l.869-.375c.285.479.57 1.155.676 1.575l-.901.435zm-.96 5.384h2.715v-1.56h-2.715v1.56zm-.945.78h4.65v-3.134h-4.65v3.135zm5.85-6.93a4.06 4.06 0 0 1-.374.33c1.409.9 4.154 1.756 6.314 2.13-.24.226-.525.646-.69.916-2.115-.45-4.71-1.455-6.27-2.55-1.665 1.185-3.915 2.114-6.03 2.669a4.312 4.312 0 0 0-.645-.885c2.49-.57 5.31-1.665 6.795-3.074l.9.465zm-2.31 10.096c-.465-.375-1.29-.901-2.024-1.306-.781.766-1.771 1.365-2.76 1.785-.136-.21-.495-.6-.691-.78 1.53-.555 2.94-1.47 3.585-2.715l.99.226a4.069 4.069 0 0 1-.51.795c.766.375 1.605.884 2.085 1.245l-.675.75zM26.917 52.41c-.465.84-1.005 1.59-1.545 2.16-.194-.18-.644-.464-.9-.614.9-.87 1.71-2.176 2.19-3.495l1.05.27c-.104.27-.225.54-.345.81h3.855v.869h-4.305z"/>
        <mask id="b" fill="#fff">
            <use xlink:href="#a"/>
        </mask>
        <path fill="#4D4D4D" d="M49.717 53.371h2.535v-1.439h-2.535v1.44zm-.825 3.9c.66-.344 1.275-.735 1.845-1.125h-3.165v1.125h1.32zm-2.669-3.9h2.459v-1.44h-2.459v1.44zm-1.171 9.51h6.615v-1.095h-6.615v1.095zm0-1.86h6.615v-.99h-6.615v.99zm-2.25-7.65h2.385v-1.44h-2.385v1.44zm6.435 4.815c-.69.36-1.395.705-2.13 1.005h5.64v4.965h-1.08v-.435h-6.615v.48h-1.05v-3.84c-.944.3-1.92.57-2.88.81a6.806 6.806 0 0 0-.555-.96c2.19-.465 4.425-1.14 6.451-2.025h-6.135v-.915h5.609v-1.125h-4.125v-.9h4.125v-1.05h-4.755v-3.074h11.61v3.074h-5.775v1.05h3.36v.766c.57-.406 1.08-.84 1.545-1.29l.87.554a15.586 15.586 0 0 1-2.55 1.995h3.33v.915h-4.89z" mask="url(#b)"/>
        <path stroke="#4D4D4D" stroke-linecap="round" d="M23.7 24.343c-.736-3.005.196-6.91 3.547-7.457 1.553-.254 3.133.43 4.138 1.642 2.123 2.56 1.493 6.1-.25 8.639a12.816 12.816 0 0 1-1.493 1.782c-1.597 1.61-4.235-.21-3.308-2.28.675-1.51 1.728-2.847 3.076-3.807 2.874-2.05 6.94-2.275 10.022-.554.935.52 1.806 1.238 2.26 2.208.451.97.398 2.225-.336 3.005-.734.78-2.183.828-2.812-.038-.68-.937-.144-2.284.635-3.14.926-1.018 2.327-1.757 3.661-1.421.444.112.84.384 1.14.735 1.058 1.243 2.848 1.578 4.394 1.057l5.554-1.87M31.608 36.404c8.764-3.057 17.842-4.655 17.842-4.655M35.807 39.454l10.618-2.873" mask="url(#b)"/>
    </g>
</svg>
